# File created by Blade
# Date/Time:  Mon Sep 22 17:23:16 2014
# Frame Rate: 120.000 fps
#------------------------------------------------------
:FULLY-SPECIFIED
:DEGREES
2706
root 2.609323 37.502144 1.833468 -11.873497 -8.847725 -15.241038
RightUpLeg -15.463675 -26.490237 -38.136759
RightLeg 108.092844 -0.000000 -0.000000
RightFoot 9.418687 -19.854298 12.782022
RightToeBase 1.907256 -0.000000 -0.000000
LeftUpLeg 18.703625 -1.822593 4.601221
LeftLeg 11.608957 -0.000000 -0.000000
LeftFoot -20.913225 20.848288 -11.608918
LeftToeBase -1.459339 -0.000000 0.000000
Spine 16.705097 -3.272498 7.380031
RightShoulder 6.564912 -29.962779 -9.562290
RightArm 29.818907 -27.919168 52.613119
RightForeArm -188.363067 -0.000000 99.604216
RightHand 95.651891 -0.000000 -169.154725
RightHandThumb1 -24.326973 -0.000000 -32.862282
LeftShoulder -14.863887 31.556468 7.793765
LeftArm 65.477230 -13.598820 -47.209656
LeftForeArm 49.095174 -0.000000 101.427319
LeftHand -25.429542 0.000000 -12.332151
LeftHandThumb1 -26.253704 0.000000 33.147579
Head 8.773430 12.491438 18.137935
2707
root 2.604235 37.508780 1.867174 -11.876382 -8.900696 -15.437633
RightUpLeg -14.807718 -26.397474 -38.509905
RightLeg 107.965498 -0.000000 -0.000000
RightFoot 9.227526 -19.975272 12.783016
RightToeBase 1.920914 -0.000000 -0.000000
LeftUpLeg 18.781121 -1.840932 4.770062
LeftLeg 11.632612 -0.000000 -0.000000
LeftFoot -20.965934 20.969859 -11.638553
LeftToeBase -1.533615 -0.000000 0.000000
Spine 16.671137 -3.241259 7.607719
RightShoulder 6.539808 -29.909408 -9.516672
RightArm 29.792566 -27.903563 52.556968
RightForeArm -188.283438 -0.000000 99.624243
RightHand 95.644595 -0.000000 -169.178374
RightHandThumb1 -24.326973 -0.000000 -32.862282
LeftShoulder -14.893479 31.581315 7.723544
LeftArm 65.286497 -13.609754 -47.320717
LeftForeArm 49.069963 -0.000000 101.601567
LeftHand -25.312704 0.000000 -12.370034
LeftHandThumb1 -26.253704 0.000000 33.147579
Head 8.832472 12.460539 18.158506
2708
root 2.598001 37.514179 1.887795 -11.839513 -9.008261 -15.631695
RightUpLeg -14.290019 -26.302185 -38.785737
RightLeg 107.885717 -0.000000 -0.000000
RightFoot 8.975828 -20.094525 12.945703
RightToeBase 2.070493 -0.000000 -0.000000
LeftUpLeg 18.776874 -1.828356 4.939143
LeftLeg 11.722753 -0.000000 -0.000000
LeftFoot -21.056973 21.126388 -11.672148
LeftToeBase -1.606252 -0.000000 0.000000
Spine 16.633368 -3.146888 7.838509
RightShoulder 6.513353 -29.859269 -9.486652
RightArm 29.819128 -27.874189 52.514576
RightForeArm -188.362390 -0.000000 99.618395
RightHand 95.670416 -0.000000 -169.134819
RightHandThumb1 -24.326973 -0.000000 -32.862282
LeftShoulder -14.879648 31.597757 7.674722
LeftArm 65.073541 -13.670407 -47.519925
LeftForeArm 49.105015 0.000000 101.782527
LeftHand -25.243462 -0.000000 -12.446408
LeftHandThumb1 -26.253704 0.000000 33.147579
Head 8.860503 12.425498 18.172719
2709
root 2.587405 37.522399 1.918711 -11.829839 -9.132726 -15.865244
RightUpLeg -13.709840 -26.230661 -39.024668
RightLeg 107.795296 -0.000000 -0.000000
RightFoot 8.714931 -20.280642 13.015814
RightToeBase 2.102036 -0.000000 -0.000000
LeftUpLeg 18.834876 -1.773968 5.171628
LeftLeg 11.794499 -0.000000 -0.000000
LeftFoot -21.130437 21.231362 -11.711310
LeftToeBase -1.690673 -0.000000 0.000000
Spine 16.600778 -3.082339 8.111584
RightShoulder 6.514744 -29.846474 -9.477514
RightArm 29.858059 -27.829888 52.448631
RightForeArm -188.414180 -0.000000 99.619969
RightHand 95.627944 -0.000000 -169.239125
RightHandThumb1 -24.326973 -0.000000 -32.862282
LeftShoulder -14.931414 31.705638 7.573093
LeftArm 64.908137 -13.763099 -47.708118
LeftForeArm 49.149350 -0.000000 101.952633
LeftHand -25.385139 -0.000000 -12.379878
LeftHandThumb1 -26.253704 0.000000 33.147579
Head 8.951404 12.374587 18.144685
2710
root 2.576958 37.531240 1.951681 -11.821747 -9.210539 -16.102001
RightUpLeg -13.069968 -26.228869 -39.288587
RightLeg 107.683071 -0.000000 -0.000000
RightFoot 8.543346 -20.437781 12.885348
RightToeBase 2.154776 -0.000000 -0.000000
LeftUpLeg 18.882309 -1.746212 5.412641
LeftLeg 11.883377 -0.000000 -0.000000
LeftFoot -21.208846 21.271436 -11.771236
LeftToeBase -1.767219 -0.000000 0.000000
Spine 16.571331 -3.085371 8.362146
RightShoulder 6.514941 -29.779620 -9.453246
RightArm 29.855560 -27.827968 52.398264
RightForeArm -188.383299 -0.000000 99.623167
RightHand 95.700965 -0.000000 -169.309240
RightHandThumb1 -24.326973 -0.000000 -32.862282
LeftShoulder -14.993848 31.759053 7.466311
LeftArm 64.675157 -13.833742 -47.871965
LeftForeArm 49.188355 -0.000000 102.180987
LeftHand -25.441520 -0.000000 -12.425667
LeftHandThumb1 -26.253704 0.000000 33.147579
Head 9.031893 12.400248 18.160480
2711
root 2.565782 37.539141 1.982727 -11.795445 -9.322909 -16.331852
RightUpLeg -12.483650 -26.218827 -39.525382
RightLeg 107.568060 -0.000000 -0.000000
RightFoot 8.445273 -20.580216 12.858098
RightToeBase 1.975789 -0.000000 -0.000000
LeftUpLeg 18.921922 -1.653095 5.669047
LeftLeg 11.959488 -0.000000 -0.000000
LeftFoot -21.282758 21.311390 -11.781689
LeftToeBase -1.788257 -0.000000 0.000000
Spine 16.538111 -3.048524 8.596352
RightShoulder 6.493834 -29.747295 -9.417840
RightArm 29.908612 -27.821699 52.316454
RightForeArm -188.351916 -0.000000 99.617382
RightHand 95.663727 -0.000000 -169.314099
RightHandThumb1 -24.326973 -0.000000 -32.862282
LeftShoulder -15.104026 31.826262 7.346752
LeftArm 64.509714 -13.910388 -48.082197
LeftForeArm 49.228470 -0.000000 102.362689
LeftHand -25.428757 -0.000000 -12.464992
LeftHandThumb1 -26.253704 0.000000 33.147579
Head 9.070191 12.407218 18.206955
2712
root 2.553573 37.546368 2.009369 -11.743642 -9.438717 -16.554728
RightUpLeg -11.945850 -26.253411 -39.743953
RightLeg 107.473663 -0.000000 -0.000000
RightFoot 8.416641 -20.702436 12.829467
RightToeBase 1.922134 -0.000000 -0.000000
LeftUpLeg 18.932928 -1.580298 5.918991
LeftLeg 12.031750 -0.000000 -0.000000
LeftFoot -21.352320 21.321873 -11.820449
LeftToeBase -1.938380 -0.000000 0.000000
Spine 16.485615 -3.003726 8.813867
RightShoulder 6.463302 -29.737387 -9.367380
RightArm 29.994575 -27.791776 52.225373
RightForeArm -188.460905 -0.000000 99.611799
RightHand 95.750234 -0.000000 -168.849835
RightHandThumb1 -24.326973 -0.000000 -32.862282
LeftShoulder -15.212474 31.879674 7.240678
LeftArm 64.307162 -13.993371 -48.263742
LeftForeArm 49.237625 -0.000000 102.580789
LeftHand -25.249072 -0.000000 -12.680398
LeftHandThumb1 -26.253704 0.000000 33.147579
Head 9.094000 12.409031 18.263525
2713
root 2.540433 37.552058 2.031585 -11.669178 -9.565522 -16.773516
RightUpLeg -11.450386 -26.341098 -39.953407
RightLeg 107.382939 -0.000000 -0.000000
RightFoot 8.412143 -20.819480 12.884795
RightToeBase 1.856065 -0.000000 -0.000000
LeftUpLeg 18.904639 -1.426229 6.207962
LeftLeg 12.137022 -0.000000 -0.000000
LeftFoot -21.428321 21.228331 -11.832192
LeftToeBase -2.027331 -0.000000 0.000000
Spine 16.418901 -2.960301 9.010868
RightShoulder 6.469152 -29.761793 -9.337423
RightArm 30.105574 -27.741895 52.133327
RightForeArm -188.520898 0.000000 99.630905
RightHand 95.696203 -0.000000 -168.894055
RightHandThumb1 -24.326973 -0.000000 -32.862282
LeftShoulder -15.308934 31.912342 7.171356
LeftArm 64.058985 -14.062595 -48.518363
LeftForeArm 49.432141 -0.000000 102.848713
LeftHand -25.353021 -0.000000 -12.751318
LeftHandThumb1 -26.253704 0.000000 33.147579
Head 9.106493 12.403914 18.335741
2714
root 2.530350 37.557962 2.059108 -11.610527 -9.700119 -16.938181
RightUpLeg -10.944871 -26.459827 -40.238293
RightLeg 107.285599 -0.000000 -0.000000
RightFoot 8.499154 -20.867118 12.841426
RightToeBase 1.751326 -0.000000 -0.000000
LeftUpLeg 18.957868 -1.316436 6.412566
LeftLeg 12.114543 -0.000000 -0.000000
LeftFoot -21.457583 21.206199 -11.850003
LeftToeBase -2.069795 -0.000000 0.000000
Spine 16.349307 -2.875698 9.151018
RightShoulder 6.454800 -29.818294 -9.277255
RightArm 30.206441 -27.677789 52.035691
RightForeArm -188.540275 0.000000 99.653927
RightHand 95.742014 -0.000000 -168.866188
RightHandThumb1 -24.326973 -0.000000 -32.862282
LeftShoulder -15.373992 31.927639 7.106519
LeftArm 63.770827 -14.136405 -48.701029
LeftForeArm 49.576411 -0.000000 103.117003
LeftHand -25.411839 -0.000000 -12.937653
LeftHandThumb1 -26.253704 0.000000 33.147579
Head 9.159168 12.368424 18.426518
2715
root 2.521262 37.564545 2.094067 -11.585654 -9.806606 -17.082656
RightUpLeg -10.367544 -26.629962 -40.589605
RightLeg 107.157729 -0.000000 -0.000000
RightFoot 8.612601 -20.924468 12.821608
RightToeBase 2.151398 -0.000000 -0.000000
LeftUpLeg 19.069276 -1.289226 6.567153
LeftLeg 12.048484 -0.000000 -0.000000
LeftFoot -21.475848 21.208369 -11.914833
LeftToeBase -2.109023 -0.000000 0.000000
Spine 16.302985 -2.816879 9.250090
RightShoulder 6.417864 -29.799833 -9.188259
RightArm 30.236956 -27.671108 51.988480
RightForeArm -188.577562 -0.000000 99.683721
RightHand 95.703123 -0.000000 -168.864647
RightHandThumb1 -24.326973 -0.000000 -32.862282
LeftShoulder -15.482839 31.990689 7.003586
LeftArm 63.540071 -14.243639 -48.872713
LeftForeArm 49.832100 0.000000 103.390748
LeftHand -25.764004 -0.000000 -12.822301
LeftHandThumb1 -26.253704 0.000000 33.147579
Head 9.210753 12.240120 18.471091
2716
root 2.508712 37.569929 2.129824 -11.545625 -9.955020 -17.256658
RightUpLeg -9.806633 -26.819624 -40.892489
RightLeg 107.009821 -0.000000 -0.000000
RightFoot 8.723811 -20.969839 12.800326
RightToeBase 1.936201 -0.000000 -0.000000
LeftUpLeg 19.178626 -1.197838 6.770866
LeftLeg 11.990004 -0.000000 -0.000000
LeftFoot -21.512650 21.201230 -11.965269
LeftToeBase -2.200943 -0.000000 0.000000
Spine 16.263602 -2.768041 9.387268
RightShoulder 6.391796 -29.771511 -9.141424
RightArm 30.287736 -27.686429 51.944110
RightForeArm -188.562395 -0.000000 99.716804
RightHand 95.754358 -0.000000 -168.854746
RightHandThumb1 -24.326973 -0.000000 -32.862282
LeftShoulder -15.698288 32.033293 6.826168
LeftArm 63.272428 -14.375692 -48.954203
LeftForeArm 50.131654 -0.000000 103.646513
LeftHand -25.515645 -0.000000 -12.845408
LeftHandThumb1 -26.253704 0.000000 33.147579
Head 9.236124 12.324861 18.626873
